<?xml version="1.0" encoding="UTF-8"?>
<!DOCTYPE svg PUBLIC "-//W3C//DTD SVG 1.1//EN" "http://www.w3.org/Graphics/SVG/1.1/DTD/svg11.dtd">
<svg version="1.1" xmlns="http://www.w3.org/2000/svg" xmlns:xlink="http://www.w3.org/1999/xlink" x="0" y="0" width="1190.551" height="841.89" viewBox="0, 0, 1190.551, 841.89">
  <g id="Layer_1">
    <path id="f" d="M838.163,90.943 L979.895,90.943 L979.895,119.29 L866.509,119.29 L866.509,147.636 L951.548,147.636 L951.548,175.982 L866.509,175.982 L866.509,232.675 L838.163,232.675 L838.163,90.943 z" fill="#000000"/>
    <path id="t" d="M832.789,466.246 L832.789,437.9 L974.521,437.9 L974.521,466.246 L917.828,466.246 L917.828,579.632 L889.482,579.632 L889.482,551.286 L889.482,551.286 L889.482,466.246 L832.789,466.246 z" fill="#000000"/>
    <path id="i" d="M113.028,259.56 L141.375,259.56 L141.375,287.906 L141.375,287.906 L141.375,401.292 L113.028,401.292 L113.028,259.56 z" fill="#000000"/>
    <path id="l" d="M677.127,259.559 L705.473,259.559 L705.473,316.252 L705.474,316.252 L705.474,372.945 L818.859,372.945 L818.859,401.292 L677.127,401.292 L677.127,259.559 z" fill="#000000"/>
    <path id="h" d="M356.472,401.292 L328.125,401.292 L328.125,344.599 L243.086,344.599 L243.086,401.292 L214.739,401.292 L214.739,259.56 L243.086,259.56 L243.086,316.252 L328.125,316.252 L328.125,259.56 L356.472,259.56 L356.472,401.292 z" fill="#000000"/>
    <path id="e" d="M677.951,90.943 L819.683,90.943 L819.683,119.29 L706.297,119.29 L706.297,147.636 L791.337,147.636 L791.337,175.982 L706.297,175.982 L706.297,204.329 L819.683,204.329 L819.683,232.675 L677.951,232.675 L677.951,204.329 L677.951,204.329 L677.951,90.943 z" fill="#000000"/>

    <!-- x=55.835, y=608.215, width=196.2, height=143.7-->
    <path id="v" d="M141.875,750.947 L198.568,609.215 L170.221,609.215 L127.702,715.514 L85.182,609.215 L56.835,609.215 L113.528,750.947 L141.875,750.947 z" fill="#000000"/>

    <path id="a" d="M96.52,204.829 L85.182,233.175 L56.835,233.175 L113.528,91.443 L141.875,91.443 L198.568,233.175 L170.221,233.175 L158.883,204.829 L96.52,204.829 z M147.544,176.482 L127.702,126.876 L107.859,176.482 L147.544,176.482 z" fill="#000000"/>
    <path id="s" d="M720.768,437.9 L720.768,437.928 C696.913,438.637 681.391,457.52 679.248,480.222 L679.229,480.222 L679.236,480.353 L679.229,480.42 L679.239,480.42 C679.944,503.024 698.179,521.697 720.768,522.888 L720.768,522.939 L721.737,522.939 L721.749,522.94 L721.753,522.94 L721.748,522.94 L721.748,522.939 L778.442,522.939 L778.442,522.939 C786.334,523.389 792.107,529.192 792.609,537.015 C792.376,545.052 786.156,550.547 778.444,551.285 L721.748,551.285 L721.748,551.285 C713.942,550.891 707.705,545.128 707.576,537.112 L679.229,537.112 C679.846,559.742 697.898,578.959 720.768,579.604 L720.768,579.632 L778.442,579.632 L778.442,579.632 L778.438,579.632 L778.442,579.632 L778.452,579.632 L779.241,579.632 L779.241,579.609 C802.451,579.287 819.847,559.537 820.952,537.112 L820.961,537.112 L820.956,537.017 L820.962,536.915 L820.951,536.915 C820.217,514.064 801.87,495.824 779.241,494.615 L779.241,494.593 L721.744,494.593 C713.763,494.074 708.407,488.031 707.582,480.323 C707.804,472.282 714.084,466.969 721.748,466.247 L721.749,466.247 L778.443,466.247 L778.443,466.247 C786.249,466.641 792.485,472.404 792.615,480.42 L820.962,480.42 C820.34,457.033 801.69,438.556 778.45,437.9 L778.45,437.9 L720.768,437.9 z" fill="#000000"/>
    <path id="p" d="M271.432,437.9 L271.432,437.9 L313.849,437.9 L313.849,437.902 L313.952,437.9 C337.435,437.9 356.472,456.937 356.472,480.42 L356.471,480.419 L356.471,480.42 L356.472,480.42 C356.472,503.904 337.435,522.94 313.952,522.94 L313.849,522.938 L313.849,522.94 L257.156,522.94 L257.156,522.939 L243.086,522.939 L243.086,579.632 L214.739,579.632 L214.739,494.593 L214.739,494.593 L214.739,437.9 L271.432,437.9 z M269.244,466.246 L243.086,466.246 L243.086,494.593 L313.849,494.593 L313.849,494.588 L313.952,494.593 C322.109,494.19 326.477,489.594 328.052,481.869 L328.125,480.42 L328.052,478.97 C326.977,471.576 321.368,466.622 313.952,466.247 L313.849,466.252 L313.849,466.247 L269.244,466.246 z" fill="#000000"/>
    <path id="r" d="M577.662,437.9 L577.662,437.9 L620.079,437.9 L620.079,437.902 L620.182,437.9 C643.665,437.9 662.702,456.937 662.702,480.42 L662.702,480.419 L662.702,480.42 L662.702,480.42 C662.566,498.08 651.124,515.285 633.926,520.632 L662.702,579.632 L631.163,579.632 L612.481,541.328 L612.482,541.328 L603.513,522.94 L563.386,522.94 L563.386,522.939 L549.316,522.939 L549.316,579.632 L520.969,579.632 L520.969,494.593 L520.969,494.593 L520.969,437.9 L577.662,437.9 z M575.474,466.246 L549.316,466.246 L549.316,494.593 L620.079,494.593 L620.079,494.588 L620.182,494.593 C628.339,494.19 632.707,489.594 634.282,481.869 L634.355,480.42 L634.282,478.97 C633.207,471.575 627.598,466.622 620.182,466.247 L620.079,466.252 L620.079,466.247 L575.474,466.246 z" fill="#000000"/>
    <path id="d" d="M593.755,233.137 L593.755,233.175 L522.885,233.175 L522.885,204.829 L522.885,204.829 L522.885,91.443 L593.755,91.443 L593.755,91.481 C631.88,92.446 662.994,124.124 663.114,162.309 C662.141,200.769 632.94,232.353 593.755,233.137 z M593.755,204.791 C616.403,204.218 634.692,184.748 634.767,162.309 C634.204,140.007 616.772,120.235 593.755,119.828 L593.755,119.789 L591.653,119.789 L591.653,119.79 L551.231,119.79 L551.231,148.136 L551.231,148.136 L551.231,204.829 L593.755,204.829 L593.755,204.791 z" fill="#000000"/>
    <path id="j" d="M507.708,259.559 L507.708,358.712 L507.706,358.712 L507.708,358.771 L507.708,358.771 L507.708,358.772 L507.708,358.772 C507.708,382.255 488.671,401.292 465.188,401.292 L465.085,401.29 L465.085,401.291 L408.392,401.291 L408.392,401.289 L408.264,401.285 C406.271,401.235 406.956,401.301 406.2,401.225 C406.199,401.225 406.199,401.225 406.198,401.225 C406.188,401.224 406.178,401.223 406.168,401.222 C383.499,399.654 366.545,381.317 365.975,358.773 L365.975,358.771 L365.978,358.712 L365.975,358.712 L365.975,344.599 L394.322,344.599 C394.332,348.179 394.38,351.759 394.415,355.339 C394.426,356.491 394.452,357.626 394.322,358.772 C394.512,362.545 395.99,366.007 398.608,368.712 C401.165,371.444 404.746,372.593 408.374,372.938 L408.392,372.939 L408.392,372.944 L408.491,372.944 L408.495,372.944 L408.499,372.944 L465.085,372.944 L465.085,372.939 L465.188,372.944 C473.345,372.542 477.713,367.946 479.288,360.221 L479.361,358.772 L479.362,328.328 L479.361,328.328 L479.361,259.56 L507.708,259.559 z" fill="#000000"/>
    <path id="b" d="M207.572,232.675 L207.572,90.943 L306.68,90.943 L306.68,90.95 L306.783,90.943 L306.783,90.943 C330.267,90.943 349.303,109.98 349.303,133.463 C349.359,144.322 345.26,153.567 338.458,161.809 C345.541,169.698 349.038,179.641 349.303,190.156 C349.303,213.639 330.267,232.676 306.784,232.676 L306.68,232.674 L306.68,232.675 L207.572,232.675 z M259.81,175.906 L235.918,175.982 L235.918,204.329 L306.68,204.329 L306.68,204.324 L306.784,204.329 C314.611,204.329 320.957,197.984 320.957,190.156 C320.827,182.14 314.592,176.377 306.785,175.983 L306.785,175.982 L306.782,175.982 L306.68,175.989 L306.68,175.983 L259.81,175.906 z M235.918,119.29 L235.918,147.636 L306.68,147.636 L306.68,147.631 L306.784,147.636 C314.611,147.636 320.957,141.291 320.957,133.463 C320.957,125.635 314.611,119.29 306.784,119.29 L306.783,119.289 L306.68,119.295 L306.68,119.29 L235.918,119.29 z" fill="#000000"/>
    <path id="c" d="M432.751,90.943 C466.128,91.077 495.421,114.926 502.11,147.636 L472.83,147.636 C467.54,130.615 450.095,119.446 432.751,119.29 C409.268,119.29 390.232,138.326 390.232,161.809 C390.232,185.292 409.268,204.329 432.751,204.329 C450.221,203.887 467.366,193.193 472.83,175.983 L502.11,175.983 C495.463,209.57 466.378,231.825 432.751,232.675 C393.613,232.676 361.885,200.948 361.885,161.809 C361.885,122.671 393.613,90.943 432.751,90.943 z" fill="#000000"/>
    <path id="g" d="M1063.349,90.943 L1066.996,91.035 C1088.072,92.578 1106.823,102.78 1119.821,119.29 L1063.349,119.289 L1063.349,119.29 L1063.349,119.29 C1039.866,119.29 1020.829,138.327 1020.829,161.809 C1020.829,185.293 1039.866,204.329 1063.349,204.329 C1080.694,204.173 1098.136,193.004 1103.427,175.983 L1077.522,175.983 L1077.522,147.636 L1103.427,147.636 L1103.427,147.636 L1132.508,147.636 C1133.688,152.269 1133.991,157.054 1134.215,161.809 C1134.215,200.948 1102.487,232.675 1063.349,232.675 C1024.211,232.675 992.483,200.948 992.483,161.809 C992.483,122.671 1024.211,90.943 1063.349,90.943 z" fill="#000000"/>
    <path id="k" d="M663.524,259.559 L618.588,293.421 L618.588,293.421 L595.714,310.658 L612.687,333.183 L612.687,333.183 L663.865,401.098 L663.608,401.292 L628.517,401.292 L573.075,327.718 L550.673,344.599 L550.48,344.343 L550.48,401.292 L522.133,401.292 L522.133,259.56 L550.48,259.56 L550.48,309.251 L556.016,305.079 L555.93,304.965 L578.569,287.906 L578.654,288.02 L616.423,259.559 L663.524,259.559 z" fill="#000000"/>
    <path id="m" d="M863.733,259.559 L863.733,259.56 L906.219,344.667 L906.253,344.599 L906.313,344.72 L948.773,259.56 L948.773,259.56 L948.773,259.559 L977.119,259.559 L977.119,401.291 L948.773,401.291 L948.773,316.252 L906.253,401.292 L863.733,316.253 L863.733,401.291 L835.387,401.291 L835.387,316.252 L835.387,316.252 L835.387,259.56 L835.387,259.56 L835.387,259.56 L835.387,259.559 L863.733,259.559 z" fill="#000000"/>
    <path id="w" d="M235.918,750.447 L235.918,750.446 L278.404,665.34 L278.438,665.407 L278.498,665.286 L320.957,750.447 L320.958,750.447 L320.958,750.447 L349.304,750.447 L349.304,608.715 L320.958,608.715 L320.958,693.754 L278.438,608.714 L235.918,693.753 L235.918,608.715 L207.572,608.715 L207.572,693.754 L207.572,693.754 L207.572,750.446 L207.572,750.447 L207.572,750.447 L207.572,750.447 L235.918,750.447 z" fill="#000000"/>
    <path id="n" d="M1021.131,259.559 L1042.331,284.213 L1042.331,284.213 L1105.869,358.104 L1105.869,259.559 L1134.215,259.559 L1134.215,287.906 L1134.215,287.906 L1134.215,401.292 L1105.869,401.292 L1105.869,401.033 L1105.567,401.292 L1084.368,376.638 L1084.367,376.638 L1020.83,302.747 L1020.83,401.292 L992.483,401.292 L992.483,372.945 L992.483,372.945 L992.483,259.559 L1020.829,259.559 L1020.829,259.818 L1021.131,259.559 z" fill="#000000"/>
    <path id="z" d="M676.804,721.798 L701.458,700.599 L701.458,700.599 L775.348,637.061 L676.804,637.061 L676.804,608.715 L705.151,608.715 L705.151,608.715 L818.536,608.715 L818.536,637.061 L818.278,637.061 L818.536,637.363 L793.883,658.562 L793.883,658.562 L719.992,722.1 L818.536,722.1 L818.536,750.447 L790.19,750.447 L790.19,750.447 L676.804,750.447 L676.804,722.1 L677.063,722.1 L676.804,721.798 z" fill="#000000"/>
    <path id="o" d="M127.202,437.9 C166.34,437.9 198.068,469.628 198.068,508.766 C198.068,547.904 166.34,579.632 127.202,579.632 C88.063,579.632 56.335,547.904 56.335,508.766 C56.335,469.628 88.063,437.9 127.202,437.9 z M127.202,466.247 C103.719,466.247 84.682,485.283 84.682,508.766 C84.682,532.249 103.719,551.286 127.202,551.286 C150.685,551.286 169.721,532.249 169.721,508.766 C169.721,485.283 150.685,466.247 127.202,466.247 z" fill="#000000"/>
    <path id="q" d="M436.842,437.9 C475.98,437.9 507.708,469.628 507.708,508.766 C507.645,522.618 503.678,536.291 495.91,547.79 L507.708,559.588 L487.664,579.632 L475.866,567.834 C464.41,575.841 450.656,579.283 436.842,579.632 C397.703,579.632 365.975,547.904 365.975,508.766 C365.975,469.628 397.703,437.9 436.842,437.9 L436.842,437.9 z M436.842,466.246 C413.359,466.247 394.322,485.283 394.322,508.766 C394.322,532.249 413.359,551.286 436.842,551.286 C443.683,551.342 448.964,549.762 455.169,547.138 L447.576,539.544 L467.62,519.5 L475.213,527.094 C478.03,521.349 479.201,515.118 479.361,508.766 C479.361,485.283 460.325,466.247 436.842,466.247 z" fill="#000000"/>
    <path id="x" d="M505.254,608.715 L452.088,679.648 L505.152,750.447 L469.764,750.447 L434.394,703.256 L399.024,750.447 L363.636,750.447 L416.7,679.648 L363.579,608.774 L363.658,608.715 L398.922,608.715 L434.394,656.041 L469.866,608.715 L505.254,608.715" fill="#000000"/>
    <path id="y" d="M553.916,608.715 L589.388,656.041 L624.86,608.715 L660.248,608.715 L607.082,679.648 L603.554,684.355 L603.554,722.1 L603.555,722.1 L603.555,750.447 L575.208,750.447 L575.208,684.336 L571.694,679.648 L518.573,608.774 L518.652,608.715 L553.916,608.715 z" fill="#000000"/>
    <path id="u" d="M1020.83,509.53 L1020.868,509.53 C1021.441,532.42 1040.911,550.906 1063.349,550.982 C1085.651,550.412 1105.424,532.794 1105.831,509.53 L1105.869,509.53 L1105.869,507.405 L1105.869,507.405 L1105.869,437.9 L1134.215,437.9 L1134.215,509.53 L1134.177,509.53 C1133.213,548.064 1101.534,579.511 1063.349,579.632 C1024.89,578.649 993.306,549.135 992.521,509.53 L992.483,509.53 L992.483,437.9 L1020.83,437.9 L1020.83,509.53 z" fill="#000000"/>
  </g>
</svg>
